PathFileType	4	(X/Y/Z)	/Users/visionmauri/Downloads/Videos/OAW10-top_Sports2D/OAW10-top_Sports2D_px_person00.trc
DataRate	CameraRate	NumFrames	NumMarkers	Units	OrigDataRate	OrigDataStartFrame	OrigNumFrames
25.0	25.0	13	22	m	25.0	1534	1754
Frame#	Time	Hip			RHip			RKnee			RAnkle			RBigToe			RSmallToe			RHeel			LHip			LKnee			LAnkle			LBigToe			LSmallToe			LHeel			Neck			Head			Nose			RShoulder			RElbow			RWrist			LShoulder			LElbow			LWrist			
		X1	Y1	Z1	X2	Y2	Z2	X3	Y3	Z3	X4	Y4	Z4	X5	Y5	Z5	X6	Y6	Z6	X7	Y7	Z7	X8	Y8	Z8	X9	Y9	Z9	X10	Y10	Z10	X11	Y11	Z11	X12	Y12	Z12	X13	Y13	Z13	X14	Y14	Z14	X15	Y15	Z15	X16	Y16	Z16	X17	Y17	Z17	X18	Y18	Z18	X19	Y19	Z19	X20	Y20	Z20	X21	Y21	Z21	X22	Y22	Z22
1534	61.39500285225328	488.82298764574506	830.3071938881026	0.0	530.4486699657132	841.7256775452918	0.0	514.5437755304795	992.8528959558585	0.0	509.13578093909206	1161.7906371831384	0.0	502.7371748838699	1174.080072138535	0.0	536.3389171558161	1187.842737545962	0.0	505.6948830764348	1197.9033089861405	0.0	451.26342259369966	839.0120345040106	0.0	458.59055941546717	962.7395024400499	0.0	453.20403343639515	1089.2169126638516	0.0	459.16861073346104	1081.617366412553	0.0	437.59684646674646	1083.5929910272412	0.0	453.337283849687	1118.2438107265175	0.0	506.5851799162714	587.1968860649808	0.0	511.0038217001602	482.2910843239876	0.0	506.5403885068908	548.4175188879759	0.0	590.3406408424673	622.4866360216288	0.0	614.0639693577882	742.379887744692	0.0	610.0889598800334	833.2561355887738	0.0	425.2370385490524	610.204329417582	0.0	388.0906687240523	732.9787166966405	0.0	371.09886031005743	839.4080957629257	0.0
1535	61.435025670279515	487.53511286340023	826.2549209786322	0.0	528.4934120162598	836.7520453526707	0.0	513.9560176160984	987.6799038928077	0.0	509.15898702158034	1158.2800235747823	0.0	503.50366905639976	1173.787280465865	0.0	536.1323804690286	1188.717751850983	0.0	505.0762800148137	1195.5765352895762	0.0	449.87097580953713	832.8558857786444	0.0	459.9026638941739	954.4800833982894	0.0	458.14769415615416	1069.431201561061	0.0	461.7173006603232	1059.5708001606477	0.0	440.5282932153821	1062.7379851107823	0.0	458.2711493399492	1098.5732360257737	0.0	504.5801771076831	586.5218304034923	0.0	506.4914501004383	481.8643176444976	0.0	502.63217214123983	547.8735059607551	0.0	586.1706949059615	620.1570509140278	0.0	611.0667716126408	737.8730177162855	0.0	609.1982736447145	822.7336389297067	0.0	424.38270536501267	609.7772312004862	0.0	389.19758564884216	731.5236619652736	0.0	373.3147131680676	838.77636416552	0.0
1536	61.47504848830576	487.10335926735087	821.7337799270222	0.0	526.9623904105298	830.9529314731402	0.0	513.2875634959332	983.7795173569815	0.0	509.315114323216	1155.6422482787125	0.0	504.4943679390774	1175.6548358511534	0.0	535.7936809693765	1191.1198998296263	0.0	504.9665748403768	1192.6020430320891	0.0	448.9961661596035	826.9742445890096	0.0	461.34550263658105	948.1473802456668	0.0	463.3666172166658	1060.4058178172845	0.0	465.3243158222374	1052.0235435393486	0.0	443.84911991682003	1055.605548466472	0.0	463.324070434325	1089.485078346057	0.0	501.9006814508982	585.5073767777412	0.0	502.6801366452532	483.40473650401424	0.0	500.0292417066844	548.0994632686052	0.0	581.5879515570572	617.0978713354934	0.0	607.5322115365182	731.5483573490562	0.0	607.4688650623528	813.610776328161	0.0	423.50956377411376	607.9678623943994	0.0	390.82267760635347	730.079454418411	0.0	375.6377043026109	838.1115177296851	0.0
1537	61.515071306332	486.7028791316859	816.5986347688112	0.0	525.624895037076	825.2976016035072	0.0	512.3504133669661	977.8626970760924	0.0	509.456554352491	1149.9967797867064	0.0	503.9715503829547	1175.0189788525438	0.0	535.7026309812915	1190.2470330828517	0.0	505.8352636782752	1184.0825824142496	0.0	449.22446861972594	822.4909177414163	0.0	462.3492644833171	943.0685761857179	0.0	466.9998235283865	1059.5005272569472	0.0	469.17155641346653	1051.827125092432	0.0	448.6135943944423	1054.4496674770267	0.0	466.26646109713084	1087.6186752443928	0.0	498.5070720099982	583.2568405579832	0.0	500.6434464984677	484.05389766959576	0.0	498.23532474558823	549.48418834949	0.0	577.0069327708035	614.0531094877194	0.0	604.2182084113024	724.4712871324869	0.0	604.7245801268109	806.3075274408625	0.0	422.11474254169235	606.0809763116052	0.0	392.50004208093776	728.3111986145248	0.0	377.3146609990911	836.2194327039566	0.0
1538	61.555094124358234	485.15240429655466	810.7939901285757	0.0	523.3708915921916	819.3943868045322	0.0	511.2084478180618	968.668447705874	0.0	510.13514041307513	1137.9250931926151	0.0	503.87473442771994	1166.639882910586	0.0	536.0689211106665	1180.8685040517892	0.0	507.0183855563508	1170.0628309362253	0.0	449.0345567368959	817.8491392709617	0.0	462.95202917214743	937.6611257569408	0.0	468.0472297410321	1059.9228230345059	0.0	472.2651929236361	1052.524555969447	0.0	452.29031380768185	1056.0840042346472	0.0	466.9185450963108	1087.9063026701701	0.0	495.0062288448041	581.1753352447042	0.0	499.3618225859847	482.8549345389017	0.0	496.57310979584224	547.298760521171	0.0	573.1761641143971	610.7323097118151	0.0	600.7512706741254	718.2622751238783	0.0	601.5263126605159	801.2137542522146	0.0	419.8123102824582	603.8287931334135	0.0	393.00251099792115	724.5836178730269	0.0	377.9497944458832	832.7191289584779	0.0
1539	61.59511694238448	482.3251730258612	804.2625820678966	0.0	519.9075776195525	812.1070983900954	0.0	511.0775065534325	957.6439484302488	0.0	511.85778170760665	1119.253137902391	0.0	507.59819067988457	1149.3945505534227	0.0	536.6814964277121	1162.2485658901542	0.0	508.17116290979806	1152.8420427918666	0.0	447.02740787180164	811.079484983548	0.0	463.30874318986895	932.0545141870442	0.0	467.22260056160223	1058.4210645455294	0.0	474.5066458016672	1055.2620526629728	0.0	453.2616706942792	1060.7678493408591	0.0	467.13110481800084	1088.1845105573964	0.0	492.1749111918347	578.53162676484	0.0	497.0170684532522	479.46801885454687	0.0	495.5488933546515	538.6828768818054	0.0	570.2314557026232	606.0669756123732	0.0	596.4918180469645	713.2812504083687	0.0	598.5062790412213	798.1272876344492	0.0	417.3586553918566	599.3520219657024	0.0	391.84883244943626	718.7981561642553	0.0	377.554900888244	827.6818145748299	0.0
1540	61.635139760410716	479.5191099994636	796.0074705610004	0.0	516.3226313117879	802.696834487338	0.0	512.7331872770811	945.129623853494	0.0	514.0008610077844	1096.457111980842	0.0	513.2032600549954	1126.930167667514	0.0	537.2095628931744	1137.8966332158493	0.0	509.4541900775373	1132.3800639754493	0.0	444.3027619189224	801.7744709112518	0.0	463.44831488357283	926.7380058333525	0.0	466.23275428873245	1055.6665053969778	0.0	476.2549212701753	1059.9999178670405	0.0	453.10421402357906	1065.629334038222	0.0	467.8081236704436	1087.5357236382588	0.0	490.6450168826107	573.056806806646	0.0	494.4307558889019	473.55189138232356	0.0	495.7920155412878	529.0481190349211	0.0	567.7970218871557	600.1166201364755	0.0	592.0254297289185	710.1082049211291	0.0	595.1522176811568	796.7554304343178	0.0	415.7745315301985	592.6012224490772	0.0	390.0576143301207	712.1654962884504	0.0	376.48609110721037	819.7173221631904	0.0
1541	61.67516257843696	478.19957913221555	785.9711223792337	0.0	513.9739956372525	792.4425295900177	0.0	515.4023795612139	932.2663938544874	0.0	515.3604631510059	1074.0334730278212	0.0	515.9112717892269	1104.0521778812486	0.0	537.3885285656283	1112.8496075000412	0.0	510.75300280392827	1109.7483827257936	0.0	442.98452928537245	791.9068695851503	0.0	463.4048356491801	921.6679624948231	0.0	466.18113723726657	1053.1339673809725	0.0	477.4853058062589	1064.0308206082902	0.0	453.13721269469806	1068.7909631655775	0.0	468.18112873721316	1086.142801659739	0.0	490.4105109353344	564.3741771452703	0.0	493.905986397673	465.23650813912434	0.0	496.54287734823754	523.265801513251	0.0	566.0391274276636	594.2328375701321	0.0	588.0869107227634	708.4690929544487	0.0	591.0150962387798	796.4590798103106	0.0	415.32110756290837	585.6342604562321	0.0	388.32371884653077	704.6683755520374	0.0	375.20854752393177	807.951380199921	0.0
1542	61.7151853964632	478.28769867649015	776.5591353270672	0.0	513.3186096464515	783.7425812101	0.0	517.3762674521427	920.9827677906801	0.0	515.6679563663608	1055.3689007356732	0.0	515.2921083702565	1085.2723341385308	0.0	537.08173116055	1092.6619980752803	0.0	511.5122592115159	1088.5825784504427	0.0	443.0453035659197	783.7788014117147	0.0	462.67316834094254	917.1500122909292	0.0	466.9286141078745	1051.4539334431065	0.0	477.8917721632897	1066.7522399583172	0.0	453.1969588183488	1071.5997314687068	0.0	468.113162812163	1084.7525928902555	0.0	490.7602858680046	555.5908982177817	0.0	495.08991582175423	457.20078560762414	0.0	497.0503827005685	517.0207265915809	0.0	564.8868493218	588.6616382820214	0.0	584.6702890823177	706.2774824462884	0.0	586.3851170436661	796.117801007916	0.0	415.57702916894	579.1781854848525	0.0	386.07009639211077	695.4438633200358	0.0	374.1604745155665	793.5257943186713	0.0
1543	61.75520821448944	478.6222536089292	769.8270206000941	0.0	513.5605772960012	777.6362862108072	0.0	517.1616132399256	910.6219502262371	0.0	515.6632237256761	1040.814227433671	0.0	514.1872134170156	1073.1588783984128	0.0	537.0891590223223	1079.352390397021	0.0	511.818012406926	1071.6921705438433	0.0	443.31385164556224	777.8908260449299	0.0	461.31776797380127	913.8294829130831	0.0	467.76980524201343	1050.7739235344332	0.0	478.08004734626576	1067.9424725264407	0.0	453.37742997415836	1074.4484556923528	0.0	468.85613305860903	1083.678952158978	0.0	490.98680254373363	550.0770700777705	0.0	495.68228973575907	453.2322052396515	0.0	497.06459164020487	508.0834859227603	0.0	563.7353442300879	582.9301433831346	0.0	581.700829212103	702.1709928354504	0.0	581.3379589945823	795.154847825071	0.0	416.0816184823971	572.9489295676455	0.0	383.2194284378552	685.0150609325309	0.0	373.40453142791614	777.996055078207	0.0
1544	61.79523103251568	478.6173318838965	765.7339890041926	0.0	513.8547559619964	774.0961106704792	0.0	515.0985379425633	900.3604371128854	0.0	515.8868130017161	1027.4725845151436	0.0	515.2995664627724	1060.7057326338022	0.0	538.4078230917717	1064.7242524687665	0.0	512.5647190998869	1057.4044653437147	0.0	443.9040205567816	773.7745815322369	0.0	460.4171106465125	911.4543909376129	0.0	468.2398946607896	1050.8171789957476	0.0	478.4364255009444	1067.5247827102503	0.0	454.13271975059246	1076.203249660185	0.0	470.50778989532796	1082.9551003641313	0.0	491.404004625667	547.1382178562571	0.0	495.6405347432948	451.89036006892707	0.0	496.4129696400575	502.750466556514	0.0	562.5301410258712	578.3383163385572	0.0	579.1517582652472	697.5684046713944	0.0	576.1481434293239	793.9352983302052	0.0	416.9244651443608	568.0769965940593	0.0	380.9745582297422	675.0826640819516	0.0	372.90527835834695	762.676940271404	0.0
1545	61.835253850541925	478.49787162288163	763.3877477331555	0.0	513.9250990411116	772.5200266094982	0.0	512.9504731320147	890.4282484097952	0.0	515.6774279441452	1009.0883378226865	0.0	518.460905820468	1035.0734678599295	0.0	539.1912078443152	1036.0809398011884	0.0	513.2348757402966	1037.5107817440132	0.0	444.9413040467888	770.5489413078719	0.0	460.54428000534523	908.949060110676	0.0	468.4867088375633	1051.0111587426159	0.0	477.5677678789282	1066.593883109641	0.0	455.0678632084261	1076.8774207337726	0.0	471.73789713973616	1082.5965149539609	0.0	492.57336928947336	543.8548011605586	0.0	496.4990508717765	449.22538455864077	0.0	495.7299859113373	503.4271378276475	0.0	561.3413574199891	576.1134612886314	0.0	576.5690697703203	694.445995633865	0.0	571.5379958617868	792.7857144848374	0.0	418.55101935164765	565.1461044384212	0.0	380.508834112096	666.4543025697777	0.0	373.1258212252171	748.5600648857423	0.0
1546	61.87527666856816	478.40393583844894	761.1940973384413	0.0	513.6576822790356	770.7927183720755	0.0	511.17803944944	879.6439171006558	0.0	513.5895542100874	983.8553810375835	0.0	519.4428838036805	996.632694127729	0.0	536.245570025307	995.7312511004681	0.0	511.8066004269709	1008.0049160611785	0.0	445.5428005572468	766.7893319574616	0.0	461.43995127825156	905.5964341280688	0.0	468.8190813484015	1051.5028574534108	0.0	475.817864180237	1066.293653448828	0.0	455.0476630544945	1076.812704863776	0.0	472.1649758544638	1082.5995670116897	0.0	493.8244699878671	540.1962880123601	0.0	497.6903682076209	447.4612863932868	0.0	495.5190318464515	504.7229504965018	0.0	559.8477734844068	575.0121688018475	0.0	573.8859640610806	692.751212235961	0.0	567.593061971359	791.5980147794742	0.0	420.9492798010689	562.9648852328074	0.0	381.9464288503666	658.9544252843374	0.0	374.25660655993624	736.1965254584738	0.0
